# xmcd CD database file
#
# Track frame offsets:
#	150
#	21314
#	32915
#	49351
#	61154
#	74510
#	86689
#	102693
#	120156
#	130853
#	144038
#	165087
#	179705
#	194326
#	208573
#	226029
#	243504
#	260996
#
# Disc length: 3656 seconds
#
# Revision: 0
# Processed by: cddbd v1.5.2PL0 Copyright (c) Steve Scherf et al.
# Submitted via: CDex 1.51
#
DISCID=020e4612
DTITLE=Various Artist - Mein Macker is'n Trucker
DYEAR=1900
DGENRE=Country
TTITLE0=Gunter Gabriel - Er ist ein Kerl (Der 30 Tonner Diesel) 
TTITLE1=Western Railroad - Dieselqualm 
TTITLE2=Tennessee Ernest G. - Solange bis die Räder glüh'n 
TTITLE3=Wilk and Friends - Highway Family 
TTITLE4=Mark Mc Allan - Keine Zeit zum küssen 
TTITLE5=Sammy and Andre - Hallo, guten morgen Deutschland 
TTITLE6=Medium Terzett - Es hängt ein Trabireifen an der Wand 
TTITLE7=Tennessee Ernest G. - Auch ein Trucker hat ein Herz
TTITLE8=Peter Beil - Hallo, Mary-Lou 
TTITLE9=Roland W. - Denver Colorado 
TTITLE10=Tony Cajee's Country Five - Viel zu gut gelebt
TTITLE11=Dave Dudley and Folkert Klaassen - Im Stau 
TTITLE12=Mary Mc Allan - Truckdriver Daddy 
TTITLE13=Tony Cajee's Country Five - Der Sheriff hat heute Geburtstag 
TTITLE14=Ladies-Country-Express - Adios, alter Truck 
TTITLE15=Andre Lamberz and Hill's Angels - Sie ist ein ehrbares Mädchen 
TTITLE16=Andre Lamberz and Hill's Angels - 18 Räder und ein Dutzend Rosen
TTITLE17=Sammy and Andre - Ich fahre nie mehr blau 
EXTD=
EXTT0=
EXTT1=
EXTT2=
EXTT3=
EXTT4=
EXTT5=
EXTT6=
EXTT7=
EXTT8=
EXTT9=
EXTT10=
EXTT11=
EXTT12=
EXTT13=
EXTT14=
EXTT15=
EXTT16=
EXTT17=
PLAYORDER=
